HIERARCHY
ROOT Hips
{
	OFFSET 0.000000 0.000000 0.000000 
	CHANNELS 6 Xposition Yposition Zposition Yrotation Zrotation Xrotation 
	JOINT Lumbar
	{
		OFFSET 0.000000 0.000000 0.000000 
		CHANNELS 3 Zrotation Xrotation Yrotation
		JOINT Neck
		{
			OFFSET 0.000000 0.445665 0.000000 
			CHANNELS 3 Zrotation Xrotation Yrotation
			End Site
			{
				OFFSET 0.000000 0.227535 0.000000 
			}
		}
		JOINT RightShoulder
		{
			OFFSET 0.019635 0.377685 0.194865 
			CHANNELS 3 Zrotation Xrotation Yrotation
			JOINT RightElbow
			{
				OFFSET 0.000000 -0.243375 0.000000 
				CHANNELS 2 Zrotation Yrotation
				JOINT RightWrist
				{
					OFFSET 0.000000 -0.264825 0.000000 
					CHANNELS 2 Zrotation Xrotation
					End Site
					{
						OFFSET 0.006600 -0.176220 0.000990 
					}
				}
			}
		}
		JOINT LeftShoulder
		{
			OFFSET 0.019635 0.377685 -0.194865 
			CHANNELS 3 Zrotation Xrotation Yrotation
			JOINT LeftElbow
			{
				OFFSET 0.000000 -0.243375 0.000000 
				CHANNELS 2 Zrotation Yrotation
				JOINT LeftWrist
				{
					OFFSET 0.000000 -0.264825 0.000000 
					CHANNELS 2 Zrotation Xrotation
					End Site
					{
						OFFSET 0.006600 -0.176220 -0.000990 
					}
				}
			}
		}
	}
	JOINT RightHip
	{
		OFFSET 0.052140 -0.069960 0.075570 
		CHANNELS 3 Zrotation Xrotation Yrotation
		JOINT RightKnee
		{
			OFFSET 0.000000 -0.402270 0.000000 
			CHANNELS 1 Zrotation
			JOINT RightAnkle
			{
				OFFSET 0.000000 -0.404085 0.000000 
				CHANNELS 3 Zrotation Xrotation Yrotation
				End Site
				{
					OFFSET 0.204105 -0.089430 0.008415 
				}
			}
		}
	}
	JOINT LeftHip
	{
		OFFSET 0.052140 -0.069960 -0.075570 
		CHANNELS 3 Zrotation Xrotation Yrotation
		JOINT LeftKnee
		{
			OFFSET 0.000000 -0.402270 0.000000 
			CHANNELS 1 Zrotation
			JOINT LeftAnkle
			{
				OFFSET 0.000000 -0.404085 0.000000 
				CHANNELS 3 Zrotation Xrotation Yrotation
				End Site
				{
					OFFSET 0.204105 -0.089430 -0.008415 
				}
			}
		}
	}
}
MOTION
Frames: 33
Frame Time: 0.02
1.60454 0.32899 -1.77983 891.6116 -53.93942 -7.58713 15.37844 0.93233 -41.63392 -24.87025 7.12526 -0.83079 22.74055 -36.04842 1.47955 137.6094 111.96718 -19.03947 -7.56567 15.06643 39.92054 -18.46526 42.46855 -80.5982 2.55564 8.00363 74.91797 13.92287 -40.62247 -4.65638 -30.29422 5.91088 2.6834 63.12567 13.08728 3.92207 -49.64843 -7.57526 1.83625 1.57623
1.58768 0.32734 -1.78233 891.6496 -54.16404 -7.80784 15.23199 0.9658 -41.08942 -24.93459 7.43894 -0.83079 22.24294 -35.64101 1.0436 137.6325 112.10623 -19.0491 -7.89589 12.22374 38.39121 -16.10583 41.85752 -80.60868 2.8564 7.9447 74.59312 13.92286 -40.62247 -5.3495 -29.90902 5.44345 2.64029 63.89646 13.62586 3.19924 -51.83503 -8.16797 1.56038 1.44588
1.57121 0.32681 -1.78482 891.15159 -54.41817 -8.40092 14.99635 0.97093 -40.23937 -25.01318 7.85597 -0.83079 21.71809 -34.96625 0.64832 137.61939 112.22886 -19.09378 -8.39924 9.28236 36.89642 -13.47836 41.03628 -80.64636 3.20016 7.77344 74.46203 13.92287 -40.62248 -6.58332 -29.42563 5.11323 2.8295 65.01461 14.37653 2.17814 -54.15692 -8.96967 1.24717 1.30305
1.55459 0.32578 -1.7873 890.91494 -54.6625 -8.80798 14.8144 0.98184 -39.53378 -25.07978 8.18535 -0.83079 21.22672 -34.42721 0.25288 137.62374 112.35398 -19.10929 -8.79957 6.40678 35.38418 -10.96953 40.27673 -80.67551 3.5177 7.63674 74.22846 13.92286 -40.62247 -7.54336 -28.96612 4.72705 2.91225 65.9926 15.02267 1.29687 -56.39633 -9.67044 0.9567 1.16876
1.5378 0.3247 -1.78987 890.60431 -54.89655 -9.28422 14.58125 1.02237 -38.80449 -25.16691 8.68068 -0.83079 20.64595 -33.82395 -0.21636 137.62493 112.50152 -19.18718 -9.29929 3.42988 33.86977 -8.46028 39.64502 -80.68938 3.87053 7.56994 74.04265 13.92286 -40.62247 -8.6135 -28.58777 4.31199 2.99651 66.90295 15.70483 0.39518 -58.73577 -10.40236 0.64008 1.02159
1.52148 0.324 -1.79225 890.32183 -55.156 -9.70453 14.4318 0.99478 -38.05142 -25.21644 8.85783 -0.83079 20.24467 -33.29458 -0.52561 137.62366 112.59664 -19.14214 -9.63471 0.64539 32.37342 -5.8975 38.70818 -80.74096 4.15739 7.33257 73.80594 13.92286 -40.62248 -9.58397 -28.01906 3.99323 3.13239 68.02986 16.3601 -0.53338 -60.88159 -11.11539 0.37078 0.89915
1.50633 0.32409 -1.7941 890.22681 -55.49161 -9.89036 14.53613 0.78387 -37.315 -25.14949 8.12274 -0.83079 20.35075 -33.00904 -0.37702 137.62474 112.56207 -18.73556 -9.47041 -1.58097 30.89891 -3.20617 36.91527 -80.89288 4.25171 6.6295 73.41077 13.92286 -40.62252 -10.16986 -26.95398 3.87181 3.37049 69.71692 16.90858 -1.46905 -62.61304 -11.74279 0.22831 0.84075
1.49163 0.32453 -1.79575 890.18242 -55.84835 -10.00499 14.7268 0.50571 -36.5641 -25.04608 7.0665 -0.83079 20.63773 -32.81166 -0.07319 137.62438 112.47 -18.20607 -9.13607 -3.60838 29.44667 -0.48175 34.83646 -81.08119 4.27774 5.76275 72.95356 13.92286 -40.62255 -10.63304 -25.7005 3.84889 3.65063 71.59818 17.41889 -2.41954 -64.11199 -12.34083 0.137 0.80888
1.47674 0.32481 -1.79747 890.12813 -56.18673 -10.14588 14.87706 0.25993 -35.81472 -24.96582 6.16305 -0.83079 20.83841 -32.59157 0.14145 137.62435 112.40118 -17.73987 -8.88221 -5.72744 27.99744 2.19779 32.93176 -81.25086 4.33308 4.9847 72.50884 13.92287 -40.62262 -11.14008 -24.53109 3.80366 3.90035 73.36258 17.93425 -3.35984 -65.62348 -12.93909 0.03124 0.76986
1.46182 0.32515 -1.79929 889.9988 -56.56487 -10.32709 15.03008 0.00595 -35.07516 -24.8587 5.23282 -0.83079 21.05461 -32.2908 0.43346 137.62448 112.35737 -17.24125 -8.62011 -7.84719 26.49158 5.01923 30.83094 -81.43031 4.3947 4.14101 72.14061 13.92287 -40.62266 -11.72003 -23.36556 3.66857 4.20312 75.2706 18.50972 -4.32751 -67.55269 -13.59686 -0.11183 0.71036
1.44705 0.32543 -1.80085 890.04607 -56.86268 -10.40052 15.19792 -0.24714 -34.31677 -24.79808 4.28257 -0.83079 21.28277 -32.18005 0.60412 137.62436 112.23121 -16.78353 -8.33345 -9.91415 25.1114 7.54143 29.07612 -81.59774 4.42975 3.3983 71.59122 13.92287 -40.62264 -12.10698 -22.14743 3.74212 4.4058 76.90767 18.94717 -5.23486 -68.52992 -14.12505 -0.16598 0.69913
1.43259 0.32554 -1.80179 890.55748 -56.9529 -10.21237 15.3967 -0.47556 -33.50221 -24.88027 3.34291 -0.83079 21.49083 -32.59462 0.37061 137.62448 112.04199 -16.44184 -8.01178 -11.90644 24.04863 9.29683 28.32708 -81.72257 4.37831 2.95952 70.59949 13.92289 -40.62281 -12.03602 -20.83892 4.36497 4.28969 77.86635 19.02189 -5.98096 -67.15306 -14.27218 0.01936 0.8181
1.41828 0.32556 -1.80245 891.24783 -56.95872 -9.9148 15.60674 -0.70132 -32.67216 -25.00959 2.39821 -0.83079 21.70576 -33.1943 0.01448 137.62442 111.74834 -16.15015 -7.67195 -13.84762 23.11594 10.73672 27.94166 -81.83406 4.30709 2.63062 69.42118 13.92285 -40.62246 -11.76723 -19.48222 5.19198 4.07507 78.52518 18.9574 -6.65248 -64.78897 -14.29847 0.28713 0.98147
1.4039 0.32558 -1.8032 891.86855 -56.98914 -9.65084 15.80358 -0.9324 -31.85583 -25.11342 1.4609 -0.83079 21.9244 -33.69639 -0.26442 137.62429 111.39836 -15.85333 -7.34542 -15.79713 22.1394 12.27439 27.40273 -81.95183 4.26521 2.26273 68.2962 13.92287 -40.6226 -11.55269 -18.14315 5.92943 3.92696 79.23853 18.94824 -7.36368 -62.72809 -14.39398 0.51854 1.12577
1.38952 0.3258 -1.80411 892.44878 -57.07457 -9.44481 16.03363 -1.15002 -31.01065 -25.23244 0.48204 -0.83079 22.12344 -34.25942 -0.62569 137.62491 111.46628 -15.4789 -6.99207 -17.80318 21.09921 14.00277 26.80092 -82.06981 4.13811 1.84589 67.29178 13.92293 -40.62323 -11.4714 -16.81807 6.66596 3.69351 80.29089 18.96683 -8.09291 -61.25622 -14.41204 0.76463 1.27735
1.37517 0.32557 -1.8046 893.14592 -57.0299 -9.10287 16.20094 -1.39225 -30.22204 -25.33242 -0.39619 -0.83079 22.3589 -34.7369 -0.8503 137.62373 110.66266 -15.27841 -6.69206 -19.68125 20.22219 15.26249 26.42422 -82.1839 4.18091 1.55543 66.00552 13.92266 -40.62074 -11.08384 -15.45159 7.4401 3.6078 80.57985 18.90077 -8.71427 -58.34744 -14.58337 0.97706 1.41009
1.36092 0.32421 -1.8041 894.20183 -56.60398 -8.3273 16.14892 -1.71924 -29.5953 -25.36065 -1.08899 -0.83079 22.72291 -34.94537 -0.63624 137.61987 107.28152 -15.55701 -6.54871 -21.22346 19.76411 15.26949 26.54697 -82.28866 4.73038 1.62125 63.87637 13.92318 -40.6248 -9.75669 -14.01486 8.36669 4.00514 78.68845 18.58487 -9.51972 -51.53259 -15.02483 1.27128 1.60311
1.34669 0.32238 -1.80315 895.35365 -56.05702 -7.4347 16.04017 -2.06791 -29.0262 -25.36977 -1.66133 -0.83079 23.11624 -35.05859 -0.28723 137.61394 103.06411 -16.00761 -6.46019 -22.63794 19.46563 14.82175 26.89089 -82.39012 5.44575 1.80531 61.49044 13.92272 -40.62161 -8.15626 -12.53527 9.30574 4.54474 76.06383 18.19766 -10.14386 -43.34329 -15.65272 1.49705 1.75567
1.33244 0.32072 -1.80233 896.40974 -55.59446 -6.65209 15.98645 -2.39544 -28.42909 -25.39278 -2.22566 -0.83079 23.47662 -35.20686 -0.02105 137.60736 99.35841 -16.3727 -6.34344 -24.10951 19.09385 14.60604 27.1574 -82.49415 6.06407 1.91312 59.29527 13.92204 -40.61357 -6.77355 -11.0523 10.17324 4.98555 73.87136 17.87671 -10.53234 -35.89875 -16.32304 1.6198 1.8418
1.31827 0.31926 -1.80181 897.69429 -55.0085 -5.62672 15.81318 -2.76979 -27.83743 -25.39521 -3.05493 -0.83079 23.9229 -35.39656 0.33252 137.60697 95.09223 -16.76996 -6.23748 -25.58621 18.72981 14.27408 27.34088 -82.59331 6.77311 2.11806 56.78278 13.92555 -40.64534 -4.98493 -9.65497 11.32376 5.56724 71.25705 17.40983 -12.21427 -27.90086 -16.47781 2.29148 2.27455
1.30392 0.31725 -1.80056 898.52087 -54.6474 -5.07945 15.87093 -3.05277 -27.2504 -25.43564 -3.30414 -0.83079 24.19374 -35.47474 0.53669 137.59384 91.79742 -17.14104 -6.12537 -27.0188 18.38592 14.07805 27.7426 -82.70191 7.33284 2.14944 54.8703 13.9184 -40.58564 -3.9846 -8.08109 11.888 5.89035 69.34338 17.22945 -11.21869 -20.75653 -17.72027 1.8279 1.99148
1.28904 0.31397 -1.79753 898.08001 -54.97679 -5.89203 16.61787 -3.06914 -26.6458 -25.58234 -1.97737 -0.83079 24.00242 -35.26756 0.30506 137.54042 91.37899 -17.39199 -5.95713 -28.39237 18.05834 14.38864 28.71326 -82.83857 7.43963 1.65443 54.70052 13.89622 -40.3344 -5.18513 -5.93596 10.80447 5.46759 69.61128 17.87804 -2.36639 -16.18642 -22.1983 -1.97326 -0.39942
1.27397 0.31014 -1.79376 897.17033 -55.53008 -7.1881 17.59217 -2.9942 -26.04802 -25.76777 -0.07284 -0.83079 23.62879 -34.94992 -0.08207 137.47522 91.96835 -17.61124 -5.78561 -29.71941 17.74553 14.8488 29.89014 -82.98501 7.39043 0.98357 55.14082 13.86046 -39.98092 -7.19704 -3.63431 9.13495 4.78025 70.59816 18.81404 9.0812 -12.54974 -27.71499 -6.87417 -3.48346
1.25899 0.30649 -1.79023 896.46064 -55.95455 -8.25641 18.43786 -2.96737 -25.4566 -25.93814 1.56634 -0.83079 23.31825 -34.68322 -0.40477 137.4192 92.10526 -17.84883 -5.63274 -31.04855 17.42468 15.22989 30.95759 -83.12589 7.41293 0.40455 55.28676 13.82197 -39.63461 -8.86696 -1.46401 7.7487 4.21179 71.21356 19.60612 19.00474 -8.56911 -32.57249 -11.12784 -6.15751
1.24401 0.30309 -1.78709 895.80896 -56.48719 -9.35535 19.38852 -2.91459 -24.82306 -26.09943 3.22648 -0.83079 23.08888 -34.41299 -0.69958 137.34728 92.19429 -18.07683 -5.40982 -32.45746 17.11258 15.64487 32.09994 -83.27012 7.43823 -0.22081 55.49293 13.82209 -39.45136 -10.41577 0.9696 6.28852 3.65143 71.9934 20.45291 30.38094 -4.20208 -38.21959 -16.00566 -9.23282
1.22898 0.29906 -1.78295 894.92463 -56.85156 -10.5058 20.17505 -2.89234 -24.28335 -26.2862 4.97233 -0.83079 22.6509 -34.12161 -1.08732 137.30529 92.62728 -18.31378 -5.33068 -33.68602 16.78684 16.02682 33.13155 -83.4113 7.41792 -0.79272 55.72556 13.73726 -38.9075 -12.41129 2.88188 4.84659 3.01272 72.60937 21.25352 39.35616 -0.8783 -42.47508 -19.84463 -11.63786
1.21382 0.29331 -1.77636 893.50559 -56.67718 -11.68938 20.45384 -2.98961 -23.95591 -26.55847 6.86637 -0.83079 21.64529 -33.82903 -1.72714 137.35256 93.8207 -18.59294 -5.65494 -34.46797 16.39496 16.31575 33.81309 -83.53393 7.31574 -1.17621 55.85265 13.43235 -37.36555 -15.45954 3.39975 3.56703 2.19446 72.61484 21.8683 40.97023 -0.22833 -42.55351 -20.53755 -12.0095
1.19862 0.28697 -1.76878 891.86996 -56.32958 -12.90645 20.55895 -3.11808 -23.7306 -26.85053 8.816 -0.83079 20.44234 -33.51402 -2.44959 137.42969 95.31974 -18.8794 -6.12297 -35.06209 15.99493 16.56114 34.37441 -83.65854 7.1723 -1.49973 55.99235 13.04025 -35.46969 -18.92728 3.37387 2.3319 1.311 72.43065 22.42425 40.09448 -0.59972 -41.20743 -20.14832 -11.68471
1.18346 0.28096 -1.76158 890.33687 -56.07502 -14.10347 20.74406 -3.22392 -23.48815 -27.11745 10.7052 -0.83079 19.35371 -33.18967 -3.11284 137.49068 96.64467 -19.15537 -6.52088 -35.71806 15.61122 16.80716 34.98473 -83.78237 7.0415 -1.85027 56.14655 12.68089 -33.75341 -22.19299 3.53925 1.09684 0.47503 72.32565 23.00041 40.42202 -0.49568 -40.56799 -20.25962 -11.68726
1.16818 0.27464 -1.75465 888.76783 -55.76921 -15.33999 20.93558 -3.36293 -23.12326 -27.45389 12.7641 -0.83079 18.15597 -32.94297 -3.8726 137.56206 98.15002 -19.46106 -6.93772 -36.47621 15.16557 17.14287 35.62351 -83.88997 6.92619 -2.20909 56.23551 12.35052 -31.95305 -25.53565 3.93713 -0.24447 -0.44548 72.27607 23.61652 40.54116 -0.46826 -39.72377 -20.37222 -11.66893
1.15317 0.26887 -1.74693 887.23122 -55.52426 -16.49303 21.06576 -3.44062 -23.03647 -27.6497 14.47396 -0.83079 17.13943 -32.5318 -4.44926 137.61912 99.34277 -19.70644 -7.35077 -36.97177 14.85845 17.27466 36.17509 -84.05187 6.77708 -2.5326 56.45663 11.93876 -30.24684 -28.80622 3.73061 -1.34596 -1.20196 72.05515 24.12867 40.46432 -0.51511 -38.94287 -20.21108 -11.51882
1.13884 0.26461 -1.73734 885.81723 -55.49911 -17.42752 21.09464 -3.34932 -23.70163 -27.45292 15.21402 -0.83079 16.68603 -31.66409 -4.49691 137.62858 99.5624 -19.78873 -7.7053 -36.83636 14.8366 16.89807 36.48389 -84.17722 6.48828 -2.78459 57.0194 11.32815 -28.87337 -31.77535 1.89161 -1.79562 -1.48805 71.41415 24.39258 40.47333 -0.49173 -38.77596 -19.54549 -11.176
1.12481 0.26096 -1.72698 884.45124 -55.53434 -18.26907 21.05797 -3.19468 -24.64102 -27.11409 15.59679 -0.83079 16.42012 -30.63463 -4.35741 137.62279 99.45828 -19.80993 -8.05317 -36.43364 14.97337 16.31059 36.7129 -84.38242 6.17578 -2.99927 57.71018 10.63834 -27.61028 -34.65065 -0.51997 -2.00245 -1.60568 70.59936 24.54781 40.34727 -0.51122 -38.69898 -18.63547 -10.71915
